<svg xmlns="http://www.w3.org/2000/svg" viewBox="0 0 500 500" enable-background="new 0 0 500 500"><path d="M202.9 198c-4.1-1.6-8.9-3.5-11.1-4.1 5.4-13 12.7-33.2 15.8-47.1l23.7 7.9c-1.3 1.9-3.5 3.2-6.6 3.2-3.8 11.4-10.4 28.1-16.1 40.2h42.7v18.3h-148v-18.4h99.6zm41.4-69.6v17.7h-133.8v-17.7h56.6v-35.1l26.9 1.9c-.3 2.2-1.9 3.8-6 4.1v29.1h56.3zm-10.1 110.1v127.1c0 20.9-8.5 22.1-47.1 22.1-.9-5.1-4.4-12.7-7.3-17.4 7 0 13 .3 18 .3 13.9 0 15.5 0 15.5-4.7v-33.2h-71.5v54.7h-20.2v-149h112.6zm-93.3-40.5c-1.9-12-7.3-30.4-13.3-44.6 13-3.5 14.9-3.8 16.8-4.1 6.3 13.6 12 31.9 14.2 44l-17.7 4.7zm72.4 56.9h-71.5v23.1h71.5v-23.1zm-71.5 62.6h71.5v-24.4h-71.5v24.4zm146.8 37.4c0 10.4 2.5 12.7 18.7 12.7h58.5c11.1 0 13-4.1 14.2-23.4 4.7 3.2 13 6.3 18.7 7.3-2.2 26.6-8.5 34.2-31.6 34.2h-61.4c-29.4 0-38-6-38-30.7v-137.4h92.4v-31.3h-92.4v-93l26.9 1.6c-.3 2.2-1.9 3.8-6 4.4v24h104.7v18h-104.7v27.8h92v65.9h-92v20.9h91.4v14.5h-91.4v20.6h89.8v14.5h-89.8v21.5h93v14.9h-93v13z"/></svg>