<svg xmlns="http://www.w3.org/2000/svg" viewBox="0 0 500 500" enable-background="new 0 0 500 500"><style type="text/css">.st0{fill:#020202;}</style><g id="g3239"><path id="path1308" d="M100.8 398.5l-60.8-61.5v-174.2l61.4-61.4 61.3-61.4h173.4l61.9 61.3 61.9 61.3v174.8l-61.4 61.4-61.3 61.2h-175.6l-60.8-61.5zm286.8-11.5l56.1-56.8v-160.4l-56.6-57.2-56.6-57.2h-161l-57.1 57.1-57.1 57.1v160.8l56.7 56.7 56.7 56.7h162.8l56.1-56.8zm-270.4-4.2l-55-55v-155.8l55.5-54.9 55.5-54.9h153.6l55.5 54.9 55.5 54.9v155.8l-55 55-55 55h-155.6l-55-55zm261.3-4.3l53.3-53.2v-150.6l-53.2-53.3-53.2-53.3h-151.4l-52.9 52.9-52.8 52.8v152.2l52.8 52.8 52.8 52.8h151.4l53.2-53.1z"/><path id="path2987" class="st0" d="M231.5 384.1c-1.4-.3-1.3-.5.6-1.2 1.6-.6 1.7-.8 2.2-3.1.4-1.9 1-2.5 2.6-2.5 2.5 0 3.1 3 .9 5.2-.8.8-3.4 2-4.5 1.9-.3 0-1.1-.2-1.8-.3zm-75.4-4.4c1.2-1.6 1.2-2.1.4-4.1-.6-1.5-.6-1.5-.1-2.5 1.2-2.2 4.1-1.5 4.6 1.1.4 2.3-1.6 5.5-4.1 6.3-1.9.7-1.9.6-.8-.8zm98.9-.2c.8-1.8.7-2.7-.5-4.4-1.2-1.7-1.2-2.9.1-3.8 1.1-.9 2-.7 3.1.4 2.3 2.4 1.1 6.8-2.5 8.6l-.8.4.6-1.2zm-15.3-.6c-.1-.5-.4-1.2-.7-1.5-.7-.6-2.6-.9-3.4-.5-.7.4-1.2-.3-1.2-1.8 0-.7.2-1.1.9-1.6.9-.7 1.1-1.5.6-3.2-.2-.7-.2-1.5.1-2.6.4-2.1 0-2.9-1.9-3.4-1.1-.3-1.5-.6-2.6-2.2-1.6-2.3-2.1-2.4-5.4-1.6-2.6.6-4.6.8-5.9.4-.6-.2-.6-.3-.5-1.3.3-1.7-1-3.4-2.6-3.4-.7 0-.5-1.2.5-3 .8-1.6 1-1.8 2.2-2.1 1.2-.3 2.6-.3 5.7.1 1.2.2 1.2.2 1.2 1.4 0 1.1.1 1.3 1.4 2.2 3.4 2.3 9.9 2.3 11.5 0 .6-.8.7-.8 2.8-.8 2.3 0 5.3-.6 6.6-1.3.4-.2 1.5-1.2 2.4-2.1l1.6-1.7h2c2.1 0 3.1.4 4.1 1.7.7.9.6 1.5-.2 1.7-.8.2-1.9 1.7-1.9 2.6 0 .3.3 1.1.7 1.6l.7 1-.6.4c-1.2.8-2.4 1.1-3 .7-.8-.4-3-.4-6.5.2-3.9.6-3.9.9.5 2.5 1.8.7 4 1.6 4.7 2.1.8.5 2.1 1 3 1.2 1.7.3 2.3.8 2.7 2 .3.9-.1 2.9-.6 3.6-.4.5-.4.5-1.3 0-1.9-1-4.1.5-4.1 2.8 0 1-.1 1.1-1 1.4-.6.2-1.3.3-1.5.3-.7 0-1.6-1.1-2.4-2.9-.5-1.1-1.5-2.3-3.4-4.3-3.1-3.1-4-3.2-2.3-.4 2.7 4.3 2.8 6.6.5 9.9-.8 1.2-1.7 2.2-1.9 2.2s-.6.1-.8.2c-.4.4-.6.2-.7-.5zm-107.6-.1l-1.6-.8 1.6-.2c2.3-.3 2.5-.4 3.5-2.3 1.2-2.4 2.8-3 4.4-1.6.9.8 1 1.5.2 3.1-1.3 2.4-5.1 3.3-8.1 1.8zm9-3.3c0-1.7-1.1-2.7-2.9-2.7-1.3 0-1.4-.1-1.5-.9-.1-1.2.3-1.9 1.3-2.4s1.5-1.5 1.5-3c0-.7.3-1.8.6-2.4.9-1.8.7-2.8-.9-3.8-1-.7-1.4-1.3-1.9-2.6-1.1-2.7-1.2-2.8-5.5-3s-6.5-1-5.6-2.1c1-1.3.3-3.7-1.2-4.1-.4-.1-.7-.3-.7-.4 0-.4 1.1-2 2.1-3 1.4-1.4 2.6-1.4 6.1-.2l3.5 1.2c.7.2.9.5.9.9 0 2.4 2 4.9 5.1 6.5 2.8 1.4 3.9 1.4 6.5.2 2-1 2.3-1.1 4-.9 2.8.3 4.5 0 6.5-1.3 1.4-.9 2-1.1 3.1-1.1 2.4 0 4.6 1.5 5.1 3.5.2.7.1.8-.4.8-2.2 0-3.7 2.7-2.5 4.5.4.6.4.6-.5.9-1.3.4-2.4.4-3.2-.1-1.5-1-9.4-2-9.4-1.2 0 .2 1.1 1.2 2.5 2.1s3.2 2.4 4.1 3.2c.9.8 2.3 1.9 3.1 2.3 1.1.6 1.6 1 1.8 1.6.3 1-.1 2.7-1.1 3.9l-.7.9-.7-.7c-1.5-1.5-4.5-.4-4.9 1.9-.2.8-.3.9-1.1.9-2.1 0-2.7-.7-3.3-3.7-.4-2.4-4.1-8.3-4.7-7.7-.1.1.1.9.4 1.9.8 2.4 1 5.4.6 6.7-.5 1.5-4.2 4.8-5.4 4.8-.6-.2-.7-.3-.7-1.4zm72.2-10.7c-.7-1.4-.8-1.9-.6-3.2.4-3.6 4.2-6.1 5.9-4 1.2 1.6.6 3.2-1.7 4.2-1.8.8-2 1.1-2.4 3.1l-.3 1.6-.9-1.7zm-44-1.2c-.4-2.3-.5-2.5-2.4-3.4-2.1-1-2.3-1.3-2.3-2.8 0-2.1 2.4-2.9 4.3-1.4 1.8 1.3 2.5 4.3 1.7 6.7-.7 2-1.1 2.3-1.3.9zm94.6-3.2c-.5-1.8-1.3-2.5-3.2-2.8-2-.3-2.4-.5-2.8-1.6-.8-1.8.2-3.2 2.3-3.2 2.9 0 5.2 3.2 4.8 6.6-.4 2.1-.7 2.4-1.1 1zm-144.6-4c-.5-1.7-.4-3 .4-4.6 1.5-3.1 4.9-4.2 6.4-2 1.1 1.6-.2 3.4-2.8 3.7-1.7.2-2.6 1-3.2 2.8l-.4 1.2-.4-1.1zm111.4-1.1c-.6-.2-1.6-.7-2.2-1.1-1-.6-1.1-.8-1.1-2v-1.3l-3.4-2.1c-5.9-3.6-11.6-7.6-13.6-9.4-1-1-2.6-2.7-3.4-3.9-1.5-2.2-1.5-2.2-1-3 1.5-2.2 2.6-5.1 2.7-7.1.1-1.9.1-2.1-1-4.2-1.2-2.3-1.8-3.2-5.1-7.1-1.1-1.3-2.7-3.3-3.4-4.3s-2.5-3-3.9-4.5l-2.5-2.6 1.9-2c3-3.2 9.9-12.3 11.8-15.5.2-.4.5.1 1.3 2.9.5 1.9 1.4 4.3 1.9 5.4 1.4 3 6.8 10.3 11 14.9 6.1 6.6 6.7 7.6 6.9 11.1.2 3.6-1.2 8.5-3.7 12.8l-1 1.7 1.7 3.3c3.4 6.5 4.2 7.4 10.6 11.7 3.6 2.4 4.8 3.8 4.4 4.8-.6 1.3-1.6 1.7-4.6 1.8-2.1.1-3.5 0-4.3-.3zm-87.8-2.4c-.9-.4-2.4-1.4-3.3-2.2-1.3-1.2-1.6-1.6-1.7-2.8-.1-1.2 0-1.5.7-2.7l.9-1.4-1-2.7c-1.3-3.5-1.5-6.6-.8-11.5.5-3.2 1.4-8 1.6-8.2.8-.7 1.3-.6 2.2.2.9.8 1.1.8 2.3.7 1.5-.2 3.5-1.3 4.2-2.2.2-.3.7-1.5 1.1-2.5.5-1.5.9-2.1 2.2-3.3 1.4-1.3 1.6-1.6 1.7-2.9.2-1.9-.2-2.4-1.9-2.3-2 .1-2.1-.4-1.8-5.2.4-4.5.7-5.8 2.4-8.7 2.3-3.8 5-6.1 8.2-6.8l1-.2-.8.7c-.6.5-1 1.3-1.4 3.1l-.6 2.4-2.4 2c-2.5 2.1-2.7 2.5-3.1 5.4-.1 1-.5 1.8-1.6 3.2-.8 1-1.4 1.9-1.4 2 0 .2 3-.7 4.1-1.1 1.6-.7 2-1.4 2.1-3.4s0-1.9 2.7-3.5c1.3-.8 1.7-1.2 2.5-2.8 1.1-2.3 3.4-4.6 4.5-4.6.9 0 2.2.6 2.7 1.3.4.4.3.6-.5 1.2-.5.4-1.3 1-1.9 1.3-.6.4-1.3 1.3-2.1 2.7l-1.1 2.1-1.6.1c-3 .1-3.4.5-4.2 3.2-.4 1.7-.3 1.7.8.7.8-.7.9-.8 2-.4 5.4 1.6 6.7 1.2 8.1-2.2.7-1.7.9-2 2.2-2.6 1.5-.8 2.4-.7 3.1.2.9 1.2.8 1.8-.7 2.4-1.4.6-3.9 2.4-4.9 3.5-.3.4-.9 1.4-1.3 2.4l-.6 1.7-1.2-.2c-5-1-7.6.6-7.3 4.6.2 2.3.8 3.4 2.3 4.1 1.4.7 1.6.6 1.1-.3-.4-.8-.4-1.8 0-3.4.3-1.1.4-1.2 1.3-1.2.5 0 1.9.2 2.9.3 1.1.2 2.3.2 2.7.1 1-.3 4.1-3.1 5.3-5s2-2.2 2.9-1.1c.8.9.8 1.3.2 3-.6 1.6-1.6 2.9-3.6 4.4-.8.6-2.5 2.2-3.8 3.4-2.1 2.2-2.5 2.4-7.3 4.8-4.3 2.1-5.3 2.7-6.7 4.1-2.9 3-5.6 7.7-8.1 14.2-.8 2-1.4 3.8-1.4 4s1.2 1.7 2.8 3.3c3.1 3.4 3.1 3.2.3 4.5-1.7 1.1-2.9 1.1-5 .1zm133.3-26.8l-1.3-.3 1.2-.5c2.1-.8 2.7-1.4 2.9-3.2.3-2.8 2.6-4.1 4.3-2.5.8.8.9 1.9.2 3.5-.6 1.3-1.5 2.1-3.4 2.8-1.4.6-2 .6-3.9.2zm-106.7-1.8c-.6-1.3-.7-2.7-.4-4.4.4-1.8.5-1.9 4.8-5.8 1.8-1.6 2.1-2 2.6-3.7.7-2 .6-2.6-.4-3.8-.5-.6-.9-.8-1.5-.7-.9.2-2.2 1.3-2.8 2.4-.5.9-3.3 3.7-4.3 4.2-.6.3-1.2.3-3.3-.1-3.5-.6-4-.5-4.5 1.4-.2.8-.4 1.8-.4 2.2 0 .9-.6.7-1.1-.2-.2-.4-.3-1.4-.3-2.6.1-1.6.2-2.1.8-2.7.9-.9 2.8-1.2 4.7-.7 2 .6 2.6.3 3.3-1.7.8-2.1 2.8-4.1 5.5-5.4 2-.9 2.4-1.5 1.9-2.8-.8-2-2.1-2.5-4.3-1.5-1.6.7-2.2 1.4-3 3.4-.3.7-.8 1.5-1.1 1.8-.8.7-2.7.6-5.1-.1-1.1-.3-2.2-.5-2.4-.4-.5.2-.5-.1 0-.9.4-.5.7-.6 2.2-.6 2.2 0 2.6-.2 3.9-2.7.9-1.6 1.4-2.2 2.8-3.1 1.5-1 1.7-1.3 1.7-2.2 0-.8-.2-1.1-1-1.7-1.2-.8-2.1-1.1-3.1-.8-1.1.3-3.7 3-4.4 4.7s-1.2 2.3-2.7 3c-2.2 1.1-2.7 1.8-2.7 3.7 0 1.3-.1 1.8-.6 2.2-.5.5-2.6 1.3-2.8 1.1 0 0 .2-.5.6-1.1.5-.7.9-1.8 1.1-3.3.4-2.2.4-2.3 1.8-3.4 3.5-2.9 3.5-3 4.1-5.4.7-2.7 1.1-3.2 3.8-4.6 1.9-1 2.1-1 4.1-.9 1.9.1 2.4.3 5.4 1.7 3.7 1.9 5.2 3.1 6.2 5.3.6 1.3.6 1.6.4 2.7-.4 1.4-.2 1.9 1.4 3.2 1.8 1.5 2.1 4.1 1 7.9-1.1 3.5-2.5 5.3-7 9.2-3.3 2.8-4 3.9-4.4 6.4-.1 1.4-.2 1.5-.5.8zm-27.4-3.1c-.3-.2-1-1.3-1.6-2.5-1.4-2.5-1.6-2.7-3.7-3.4-1.3-.4-1.8-.8-2.8-2-.7-.8-1.2-1.8-1.2-2.1 0-.5.2-.3 1 .9 1.3 1.9 1.8 2.1 3.7 1.9 1.3-.2 1.7-.1 2.7.6.9.6 1.4.7 2.4.7 1.7-.1 2.1-.8 1.3-1.9-1.1-1.5-2.3-2.1-4.2-2.1s-2.2-.1-2.7-1.1c-.5-.9-.4-1 .7-.5 1 .5 1 .5 2.6-.3l1.5-.8 1.5 1.1c1.7 1.2 1.9 1.3 2.5.4.7-1 .6-1.3-.8-2.6-1.8-1.7-2.9-4.8-2.2-5.9.2-.4.3-.4.3.1 0 .8 1.3 3.1 2.1 3.8.4.3 1.2.9 1.9 1.2.8.4 1.4 1 1.8 1.7.7 1.4 1.3 1.8 2.6 1.5 1.2-.2 1.5.2 1.1 1.7-.2.6-.7 1.4-1.4 2-1.3 1-1.8 1.9-2.4 3.9-.2.7-.7 1.7-1 2.2-1.7 1.5-4.6 2.3-5.7 1.5zm142.5-.1c0-1.8-2.2-3.1-4.1-2.3-1 .4-1 .4-1.3-.3-.6-1.2-.4-2.2.5-3 1-.8 1-1.2.5-3.2-.2-.9-.3-1.9-.2-2.5.4-2.1-.1-2.9-1.9-3.4-.9-.2-1.6-.6-2.1-1.2-2.6-3.2-2.8-3.2-6.6-2.1-2.3.7-4.4.9-5.6.6-.5-.1-.6-.4-.5-1.5.1-1.2 0-1.4-.8-2.1-.5-.4-1.2-.8-1.6-.8-.9 0-.9-.6-.1-2.7 1-2.7 2.2-3.2 7.5-2.9l3.6.2.8 1.5c1.7 3.3 4.2 4.8 7.8 4.7 3.2 0 4.9-1.2 5.4-3.7.2-.9.3-.9 1.3-.9 2.7 0 5.9-1.5 7.3-3.3 1.2-1.7 2.1-2.1 4.1-2.1 1.8 0 3.4.6 4 1.5.6.8.5 1.6-.1 1.6-1.6 0-2.3 3.3-1 4.7.7.8.6.9-.9 1.7-.6.3-1.4.4-3 .3-2.7-.2-8.4.9-8.2 1.6.1.3 1.4.8 3.4 1.5 1.8.6 4.1 1.5 5.2 2 1 .5 2.2.9 2.6.9 1.4 0 2.3.5 2.7 1.6.5 1.2.3 3.1-.3 3.9-.3.4-.4.4-1.3 0-1.9-.9-3.8.5-4 2.8-.1 1.1-.1 1.2-1.4 1.6-1.7.5-2.5.1-3.6-2.2-.5-1-1.6-2.3-2.7-3.4-4-3.8-5.4-4.2-3.2-1.1 1.5 2.1 2.5 4.6 2.5 6.1 0 .7-.3 1.6-1 2.8-.6.9-1.1 2-1.3 2.3-.4.7-2.4 1.4-2.4.8zm15.2-1c.7-1.8.6-2.4-.8-4-1.3-1.5-1.3-2.6-.2-3.8.9-.9 1.3-1 2.5-.5 2.8 1.3 2.6 6.4-.3 8.7-.7.6-1.4 1-1.5 1-.1.1 0-.6.3-1.4zm-42.1-11.5c-1.4-2.4-1.5-5.2-.1-7.2 1.8-2.5 5.2-2.2 5.2.6 0 1.3-.4 1.8-2.3 2.8-1.7.9-1.8 1-2 3.1l-.2 1.7-.6-1zm-75.2-1c.4-1 .5-5.4.2-6.4-.2-.6-.9-1.5-1.6-2.1l-1.3-1.1.2-1.7c.3-3.3-1.8-5.9-7.2-8.5-2.9-1.5-3.6-1.7-5.4-1.8-1.7-.1-2.3 0-3.3.4-.6.3-1.9.7-2.9.9-4.3.7-7.1 2.6-9.7 6.6-1.6 2.5-2.5 4.7-2.7 7-.1.9-.3 1.8-.4 1.8-.4.3-5.3-3.4-8-6-7.7-7.4-12.7-16-15.3-26-2.2-8.8-2.8-16.1-1.8-22.6.8-5.7 3.2-17.1 4.3-20.4 2.5-7.8 8.3-17.1 15.7-25.5 6.1-6.8 10-10.4 17.7-16.1 2.8-2.1 6.6-5.2 8.5-6.9 3.4-3.1 12.1-12.1 14.4-14.9 4.6-5.6 8.7-14.3 11.3-23.9.5-1.9 1-3.5 1-3.4.2.2-.5 11.9-.9 14.1-.7 4-5.7 16.1-9.4 22.4-6.3 10.9-15.9 23-22.8 28.4-4.9 3.9-8.5 9.2-12.5 18.3-4.8 10.9-6.3 17.9-6.4 28.6 0 6.5.2 8.4 2 13.4 3.5 10.2 8.2 17 13.7 19.7 5.1 2.5 10.2 2.6 15 .2 2.8-1.4 4.7-3 6.2-5.2 2.4-3.5 2.4-4.2 1.1-12-1.9-11.6-1.1-17 4.8-29.7 6.2-13.6 17.9-24.5 29.9-27.9 3.9-1.1 6.8-1.4 12.4-1.2 13.9.5 20.9 3.4 32.1 13.6 6.8 6.2 10.4 8.9 12.8 9.6 1.5.5 4.3.4 6-.2 3.8-1.3 8.8-5 10.2-7.6 1.1-2.1-.2-6.3-2.7-9.1-3.2-3.6-8-6.6-21-13-13.3-6.6-18.1-9.7-24.1-15.7-6.4-6.4-10.1-12.7-12.5-21.8-1.6-5.9-1.6-10.6 0-15.6 2.4-7.7 7.2-12.7 16.3-17.3 4.4-2.2 11.2-4.7 11.6-4.3.1.1 1.1 1.6 2.1 3.1 2.1 3.3 6.2 7.3 9 9 .9.5 3 1.5 4.7 2.2l3 1.2-1.4.2c-2.5.3-2.9.2-5.3-1.4-3.8-2.5-6.2-3.4-9.2-3.4-2 0-2.7.1-4 .7l-1.6.7 2.8 1c4.3 1.5 5.5 2.3 7 4.7.7 1.1 1.8 3.1 2.3 4.4.5 1.3 1.3 2.7 1.7 3.2.4.5.6 1 .6 1.1-.1.1-1.7.4-3.7.7-4.8.7-5.7 1.1-6.5 2.5-1.2 2.1-1.1 3 .2 5.6 2.7 5.2 7.7 8.9 21.5 15.8 9.3 4.6 11.9 6.1 16 8.8 11.5 7.6 18.2 16.7 20.5 27.5 1.8 8.8 1.4 14.5-1.6 20.7-2.9 6.2-7 10.8-13.7 15.2-2.6 1.7-7.4 4.4-7.8 4.4-.7 0-.1-1.5 1.1-2.6 1.5-1.4 1.9-2.4 1.9-4.7 0-1.2-.1-1.9-.7-2.9-.8-1.3-2.6-2.8-3.5-2.8-.4 0-.5-.3-.5-1.2 0-1.6-1.3-4.2-2.5-5s-3.3-1.1-4.8-.7c-.8.2-1.6.2-2.3 0-.6-.1-2.5-.3-4.1-.3h-3l-.9-1c-2-2-5.4-3.1-7.5-2.3-.5.2-.7.1-1.1-1.2-.7-2-1.2-2.6-2.9-3.4-2-.9-3.2-.9-4.9.2-1.8 1.2-1.9 1.4-.5 1.4 1.8 0 3.9.6 4.5 1.2.4.4.6 1.3.7 3.1.2 1.8.4 3 1 4.2.8 1.7.9 3.7.1 4.7-1 1.3-3.9-.6-4.6-2.9-.7-2.6-3.9-4.3-7.8-4.1-1.4 0-2.4 0-2.6-.3-.2-.2-.4-1.1-.5-2.1l-.1-1.7-.5.7c-1.9 2.4-1.7 5.6.4 7.6.7.6.9.7 2.5.5 1-.1 2.3-.2 2.8-.3 1.1 0 1-.2 1.1 2.3.1 1.6 4.6 7.3 5.8 7.3.7 0 1 .5 1.3 1.8.3 1.6-.5 1.9-2.2.8-1.1-.7-1.9-.9-4.3-1.3-3.7-.5-4.2-.7-5.4-2.1-1-1.2-1.1-1.6-1.4-4.3-.1-.7-.1-.7-.9.4-.4.6-.8 1.5-.8 1.9 0 1.1-.2 1-1.9-.6-2.5-2.4-6-5.3-7.7-6.3-4.5-2.7-13-3.4-16.8-1.3-5.7 3.1-9.5 8.3-11 15.1-.6 3-.7 5.1-.6 13.8.1 5.3-2.2 16.5-4.2 20.5-1.3 2.7-7.6 11.1-11.1 15-2.7 3-6.9 6-10.6 7.6-1 .7-1.3.7-1.1.3zm124.9-7.2c-.9-1.8-1-1.8-3.9-2.3-.6-.1-1.3-.4-1.6-.7-1.7-1.8-.1-4.3 2.3-3.9 3.2.6 5.3 4.5 4.3 7.9-.2.7-.3.6-1.1-1zm-29-1.2c-2.5-.6-3.9-1.9-5.4-4.7-.5-.9-.5-1.4-.4-3.2.2-2 .2-2.1-1.2-5.2-2.4-5.6-3.6-7.2-7.1-9.4-2.3-1.5-2.3-1.5-1.9-4.1.2-1.8 1.5-8.2 2.5-12.4.1-.4.4-.6.8-.6 1.9 0 2.3-1.7 1.9-8.4-.2-2.7-.2-5.5-.1-6.2.5-3.3 3.7-7.8 6-8.2 1.6-.3 2.4-.9 2.8-2.2.3-1.1.4-1.2 1.6-1.3 1.2-.2 4.4 0 5.7.4.5.1.6.3.5 1.2-.4 2.6-2.2 4.6-4.9 5.5-2.2.7-2.7.7-4.6-.9-1.6-1.3-1.7-1.2-1 .5 1.1 2.5 2.8 3.4 6.1 3.1 2.7-.2 4.9-1.1 5.9-2.2.9-1 1.3-1 2.1-.4.6.4.6.4 0 1.5-.8 1.6-2.7 2.9-4.4 3.1-3.6.4-4.8 1-6.2 3.1-.9 1.4-1 2.7-.4 5.3.7 2.7.7 2.7 1.4.4 1.1-3.9 2.2-4.7 5.9-4.6 1.9 0 2.2 0 3.4-.8 1.6-1 1.5-1 2.5-.3 1 .8 1 1.2-.2 3.8-.8 1.8-1.2 2.2-2.1 2.7-2 1-3 3.4-2.3 5.8.3 1 .2 1.3-1 3.5-1.8 3.4-2.5 5.4-2.7 8.4-.3 5 1.2 16 2.8 20.7.9 2.6.9 2.7.5 3.9-.3.9-.7 1.3-1.5 1.7-1.3.6-3.7.8-5 .5zm-115.7-16.9c-5.5-1.9-8.9-5.4-12.6-12.8-1.8-3.7-3.3-7.6-4.3-11.2-.6-2.4-.7-3.2-.7-9.2 0-11.4 1.6-18.2 6.9-29.8 3.9-8.5 7.3-13.3 12-17 2.2-1.7 4.9-4.3 7.5-7.4 1.3-1.5 2.5-2.8 2.7-2.8.3 0 1 3.6.7 3.7-4.4 1.7-4.8 2-5.5 3.1-.8 1.4-.8 2.4-.1 3.2l.6.6-2.3.5c-4.5 1-4 .6-4.1 3.2l-.1 2.3-1.3.2c-.7.1-1.8.2-2.4.2-1.8 0-1.9.2-1.9 3.2v2.6l-1.4.7c-2 1-2.1 1.3-2.1 4.1v2.5l-1.9 1.6c-2 1.7-2.3 2.1-2.4 3.4-.1 1.8 0 2.1 1.2 2.9l1.2.8-2.7 2.8c-1.5 1.5-2.7 2.9-2.7 3 0 .2.7.8 1.6 1.5l1.6 1.2-2 3.2c-1.1 1.8-2 3.3-1.9 3.4.1.1 1.1.2 2.2.3 1.1.1 2.1.3 2.2.4.1.1-.6 2.8-1.6 6s-1.7 5.9-1.6 6c.2.3 2.8 1.2 3.5 1.2.2 0 1-.5 1.7-1l1.3-1-.2 2.3c-.1 1.4-.6 3.4-1.2 5.1-.6 1.6-1.1 3.1-1.2 3.3-.1.4.2.5 3.8.3l3.9-.2-.7 1.1c-1.2 1.9-1.8 3.5-1.8 4.3 0 .9 1.7 5 2.1 5 .1 0 .5-.4.8-1 .4-.7 1.2-1.3 2.7-2 1.1-.6 2.1-1 2.1-1s.4.9.9 1.9c.9 1.9 1.6 2.7 4.3 4.4.7.4 1.3.8 1.3.7.1-.1-.2-1.4-.5-2.9-.4-1.9-.5-2.8-.3-2.8s2.4-.1 5-.2l4.7-.2-3.6-2.3-3.6-2.3 1.4-1c1.4-1 4.5-2.5 5.8-2.9.4-.1.7-.2.7-.3 0-.1-1.6-1.1-3.6-2.3-2-1.2-3.7-2.2-3.7-2.3-.1-.1 1.3-1.1 3.1-2.2s3.3-2 3.4-2c.2-.2-1.2-2.6-2.2-3.8-.6-.7-1.5-1.4-2.1-1.7l-1.1-.5 2.8-2.6c1.6-1.4 2.9-2.6 3-2.7s-.7-1.2-1.8-2.5l-2-2.4c0-.1 1.1-.8 2.5-1.5 1.4-.8 3.3-1.8 4.2-2.3l1.7-.9-2.9-2.4-2.9-2.4 1.5-.7c1.4-.6 2.5-.9 6.1-1.4l1.5-.2-1-2.1c-1-2.1-1.9-3-3.7-3.4-.4-.1-.8-.3-.8-.5 0-.5 1.4-1.7 2.4-2.3 1.1-.6 5.7-2 8.6-2.7 1.2-.3 2.3-.6 2.4-.7.1-.1-1.4-.8-3.3-1.6s-3.4-1.7-3.4-1.8c.2-.5 3.7-2.5 4.9-2.8.7-.2 2.5-.3 4.9-.2l3.8.2.2-1.9c.1-1.1.2-2.9.2-4l.1-2.1c.1 0 1.7.8 3.6 1.7 1.9.9 3.6 1.7 3.7 1.7.1 0 .5-.7.8-1.5.6-1.7.4-2.7-.6-5-.8-1.8-.9-1.8 2.2-1.1 2.3.5 3.6 1.2 6.4 3.3 1 .8 1.9 1.4 2 1.4s.3-.7.4-1.6c.4-1.7 1.2-2.9 2.5-3.6l.8-.5 2.8 3 2.8 3h-3.4c-10.1 0-18.5 3.4-27 10.9-7.8 6.8-14 17-18.1 29.6-1.5 4.5-1.9 10.7-1.1 16 .2 1.4.7 4.4 1 6.7.6 3.8.6 4.2.2 5.2-1.4 3.5-4.2 6.4-7.9 8.2-2.4 1.2-2.5 1.2-5.9 1.3-3.1-.1-3.6-.2-5.7-.9zm172.2.5c-3-.7-5.2-3.9-4.4-6.4.6-1.7 2.8-2 4.1-.5.4.5.5 1 .4 2.6-.1 2.3.2 2.7 1.9 3.7.5.3 1 .6 1 .8.1.1-1.8.1-3-.2zm26.2-7.5l.2-1.9-1.1-.9c-2-1.7-2.1-1.9-2.1-3 0-2.1 2.2-3.1 3.9-1.8 2.4 1.9 2.5 5.8.2 8.3l-1.1 1.3v-2zm-32.9-.8c-2-2.6-1.9-3.6 1-7.8 1-1.5 2.1-3.2 2.4-3.9 1-2 1.7-2.2 5.1-1.3 3.2.8 3.7.7 5.7-1 2.4-2.1 2.5-7.2.1-9.3l-1.1-1 .3-1.4c.5-2.1.4-3.7-.3-5.2-.7-1.6-.8-2.4-.1-3.9.7-1.4 1.9-2.6 3.2-3 1.5-.5 1.9-.2 1.9 1.2 0 1 .1 1.3.9 2s1.1.8 2.3.7l1.4-.1v1.4c0 1.1-.2 1.6-.8 2.3-.5.5-1.1 1.5-1.4 2.1-.6 1.3-2.6 6.9-2.6 7.4 0 .2.6-.3 1.4-1 2.3-2.2 4.7-4.1 6.2-5 .8-.4 2-1.4 2.7-2.2 1-1.1 1.4-1.4 2.1-1.4 1.1 0 2.7.8 3.4 1.7.7.9.7 1.3-.1 1.7-1.1.5-1.5 2.4-.8 3.6.4.7 1.6 1.6 2.3 1.8.2.1-.6 2.4-1 2.7-.3.3-1.3.5-3.6.6-3.7.2-8.8 1.6-8.8 2.4 0 .3.3.4 2 .2 2.5-.2 5.8.3 7 1.1.5.3 1.3 1.4 1.8 2.3s1 1.8 1.2 2c.4.4.5 1.6.2 2.3-.1.3-.3.4-1.2.1-1.8-.5-3.5.9-3.5 2.8 0 .6-.1.7-.5.6-.3-.1-.9-.2-1.3-.3-.8-.2-1.4-.9-1.4-1.8 0-.8-.8-1.4-2.5-1.9-.8-.2-1.8-.7-2.3-1.1-.9-.8-1.9-1.3-2.4-1.3-.2 0-.8.5-1.4 1-1 .9-1.4 1.1-3.2 1.3-1.1.2-2.3.4-2.6.6-.6.3-1.6 2.3-1.6 3.2 0 1.1-1.2 4.2-2 5.1l-.8 1-.8-.6c-.5-.3-1.1-.7-1.3-.8-.7-.3-2.5.3-2.9 1-.6.8-1 .6-2.3-.9zm-19.9-11.1c-3.5-.5-4.3-1.1-5-3.8-.2-.7-1.3-2.7-2.5-4.4-1.2-1.7-2.1-3.2-2.1-3.4 0-.1 1-.8 2.2-1.5 3.4-2 6.8-4.6 9.7-7.6l2.6-2.7.6 2.8c1.1 4.9 2.4 7 5.3 8.4 1.1.5 1.3.6 3.1.3 2.2-.4 2.9-.3 8.2 1.4 2.8.9 3.9 1.1 5.8 1.1h2.4l1-1.1c.5-.6 1-1.3 1-1.5 0-.6.7-.4 1.7.5 2.2 2.1 1.4 7.2-1.2 8.8l-1.4.8-2.6-.6c-1.4-.3-2.8-.6-3.1-.6-.2 0-1.7.5-3.3 1.2-4.4 1.8-6.4 2.1-14.5 2.2-3.9-.2-7.5-.2-7.9-.3zm-22.3-2.9c-.7-2.2.1-4.3 2-5.3 1-.5 1.3-.9 2.3-3 1.3-2.9 1.4-3.3.3-4.4-1-1.1-2-1.2-3.5-.1-1 .7-1.4.8-3.4.8-3.1 0-4.5.7-5.5 2.8-.4.8-.8 1.5-.9 1.5s-.2-.7-.2-1.6c0-3 1.6-4.6 5-5 3.2-.4 4.9-1.4 6.1-3.6.9-1.5.6-2.5-.8-2.9-.5-.2-1-.3-1-.3-.1 0-.6.5-1.2 1-1.6 1.4-3 1.9-5.9 2.1-2.5.1-2.6.1-3.4-.6-.6-.6-.7-.7-.2-.5 3.2 1.6 9.3-2.5 9.3-6.2 0-.6.2-.9.7-1.2 1-.5 3.7-.3 4.7.5 1.1.8 2.4 3.5 2.2 4.5-.2 1.1.3 1.9 1.1 1.9 1 0 2.6 1.5 3.2 3.1.8 2 .3 4-1.6 6-1.4 1.5-1.4 1.5-1.4 3.4 0 2.2-.4 3-1.4 3.2-2.6.6-4.7 1.3-5.1 1.9-.3.4-.4 1.2-.4 2-.1 1.3-.5 1.5-1 0zm-22.8-2.7c-1.3-.7-2-1.3-2.8-2.6-1.5-2.2-2.9-3.1-6.2-4.2-4.1-1.4-5.6-3.1-5.5-6.7 0-.8.1-1.1.2-.8.2.9 1.2 2.5 2.1 3.4 1 .9 1.8 1.2 5 1.5 2.3.3 3.1.5 4.1 1.2 2.2 1.4 3.4 1 3.4-1 0-1.6-.5-2.6-1.6-2.8-1-.3-3-2.4-4.5-5-.8-1.3-1-2-1-3.1 0-1.9-.6-2.2-3.5-1.6-2.3.5-2.9.3-3.9-1.1-.6-.9-.9-3.7-.5-4 .2-.1.3.1.3.5 0 1.3.9 1.7 3.3 1.5 1.8-.2 2.4-.1 3.9.5 2.2.9 3.3 1.9 3.6 3.2.5 2.9 4.5 4.9 5.9 3 .8-1.1.8-4-.1-5.4-.5-.8-.7-1.8-.9-3.8-.3-3.8-.8-4.4-4-4.9l-1.3-.2.9-.5c1.9-1 4.7.5 5.6 2.8.7 2 1.4 2.6 2.4 2.2 1.2-.6 2.5-.4 4.4.5 3.8 1.9 4 4.5.3 5.6-2 .5-3.6 2.3-5.2 5.3l-1 1.9v7.3c0 4-.1 7.5-.2 7.7-.1.7-1.4.5-3.2-.4zm105.2-4.6l-1.3-1.4-2.1.2-2.1.2-.8-.9c-1.6-1.9-.5-3.7 2.1-3.7 1.8 0 2.7.5 4.1 2 1.1 1.2 1.7 3 1.6 4.3-.2.6-.2.6-1.5-.7zm-20.3-13.4c-.6-.2-1.2-1.8-1-2.5.2-1 1.9-2.4 3.3-2.7 2.1-.6 4.9.3 6.4 1.9.5.5.4.5-1.4.4l-1.9-.1-1.5 1.6c-1.3 1.4-1.6 1.6-2.5 1.6-.6 0-1.2-.1-1.4-.2zm-73.7-11.2c-2.7-1-5.3-2.9-11.9-8.9-10.6-9.6-17.6-13-28.9-14-3-.3-3.1-.4-1.1-2.4.9-1 2-1.9 2.4-2.1.7-.4 3.4-.9 3.4-.6 0 .1-.2.6-.4 1.1-.5 1.2-.4 1.7.6 2.4.7.5 4.2 1.9 4.7 1.9.1 0 .9-.8 1.6-1.7l1.3-1.7 1.2.7c1.7.9 2.6 2.2 3.5 4.8.5 1.3 1 2.3 1.1 2.3s1.1-.4 2.2-1l2-1 .9 1c.9.9 1 1.1 1.1 3.3.1 1.3.2 2.3.4 2.3s1-.2 2-.5l1.8-.5.7 1.5c.4.8 1.2 2.7 1.8 4.2l1.1 2.7 1-2.1c.5-1.2 1-2.2 1.1-2.2.2-.2 1.5 1.1 2.4 2.5.4.7 1.2 2.5 1.8 4s1.1 2.7 1.2 2.7.7-.9 1.3-2.1c.6-1.1 1.1-2.1 1.2-2.2.1-.1 1.2.9 2.5 2.2 1.7 1.7 2.5 2.3 2.8 2.1s.3-.5-.1-1.9c-.3-.9-.5-2.7-.5-4v-2.3l1.3 1.2c1.8 1.7 3 1.9 5.9.6 1.2-.5 2-1 1.9-1.1s-1.2-.6-2.3-1c-1.7-.7-2.5-1.2-4.2-2.8l-2.1-2 1.2-.4c2-.7 1.9-2.1-.1-2.7-1.5-.4-2.5-.4-4.7.2l-1.9.5-.6-3.2c-.3-1.7-.7-3.3-.7-3.5-.1-.2-.7.1-1.9 1.1-1 .8-1.9 1.5-2 1.5s-.4-.7-.7-1.6c-.4-1.2-1-2.1-2.4-3.6l-1.9-2-.9 1.8c-1.8 3.5-2.7 3.7-3.8.5-1.5-4.1-2.3-5.2-6.2-8l-1.2-.9-1 1.1c-1.1 1.3-1.2 1.8-.6 3.4.2.6.4 1.1.3 1.1-.2.2-4.2-2.6-5.1-3.4-1.1-1-1.6-2.1-2.1-4.7-.3-1.3-.5-2.3-.5-2.3s-.9-.2-1.9-.4c-2-.4-3.1-.1-3.6 1.1-.4 1-.7.8-1.2-1-.5-1.6-.3-4 .3-5.6.1-.3 0-.6-.3-.7-.4-.1-.9.2-1.9 1.3l-1.4 1.5-.5-1.1c-.7-1.5-1.7-4-2-5.4-.2-.9-.2-1.5.1-2.6.2-.8.4-1.8.4-2.4v-1l-1.1.7c-.9.6-1.3.7-2.5.6-1.4-.2-1.5-.1-2.5.8l-1.1 1v-.8c0-1.4.6-4.4 1.1-5.3.3-.5 1.1-1.8 1.9-2.8.8-1.1 1.3-1.9 1.2-1.9l-1.8.4c-2.1.5-2.7.2-5-2.2l-1.7-1.7 1.7-.6c2-.7 2.8-1.7 3.8-4.5.4-1.1.7-2.2.7-2.3s-.7-.3-1.6-.4c-1.3-.2-1.8-.1-3.1.5-.8.4-1.6.7-1.6.6 0 0 .2-.5.5-1.1s.8-1.6 1-2.5c.5-1.6 1.9-3.1 3.9-4.1 1.3-.7 1.3-.7.3-3-.4-1-.7-1.2-1.8-1.4l-1.3-.3 1.3-.9c1.6-1.2 3.2-1.6 5.1-1.4 1.9.2 2.4-.4 1-1.4s-3.1-2.7-3-2.9c.1-.1 1.8-.6 3.8-1.2 3.5-1 9.1-3.3 9.1-3.8s-2.3-2.7-3.2-3l-1.4-.7.7-.4c.5-.3 2.2-.4 6.6-.4 4 0 6.4-.2 7.6-.4l1.7-.4-2.3-1.4c-1.3-.8-2.9-1.9-3.6-2.5l-1.3-1.2 1 .2c1.2.2 7.5.7 8.8.7.7 0 1 .2 1.7 1.3.4.7.8 1.3.8 1.4s-.8.3-1.8.6c-5.2 1.5-12.7 5.2-17 8.4-8.3 6.2-12.1 16.4-9.9 26.9 2.1 10.5 7.3 19.4 15.4 26.7 5.4 4.8 10.3 7.9 21.9 13.6 12.4 6.1 16.1 8.3 19.7 11.7 2.2 2.1 3.3 3.9 4 6.5.6 2.3.2 3.2-2.2 5.6-4.3 3.9-9.9 6-13.4 4.7zm83.1-25c-1.1-1.5-1.5-3.6-1.4-6.6.2-3.5.6-4.4 4.1-8.5 2.7-3.1 4.1-5.4 4.1-6.7 0-.4-.4-1.7-.9-3-1-2.6-1-2.4 1-7 1.3-2.9 1.2-3.8-.5-6-.7-.9-1.7-2.2-2.2-2.9l-.9-1.3v-3.9c0-2.2-.1-4.4-.2-5-.1-.9-.1-1.1.3-1.1.6 0 .6-.2-.1-1.3-1-1.6-1.3-2.9-.9-4.1.2-.6.4-1.2.5-1.2s.9 1.5 1.9 3.4l1.7 3.4v4.4c0 2.4.1 4.7.3 5 .1.3 1.1 1.9 2.2 3.4 2.4 3.6 2.4 4.4.7 8.5-1.4 3.3-1.4 4.4-.3 7l.8 1.9-.5 1.4c-.4 1.1-1.4 2.2-4.3 5.2-2.4 2.4-4.1 4.3-4.5 5.2-1.3 2.7-1.6 7.8-.6 9.8.7 1.1.5 1.1-.3 0zm-179-17.2c.3-.4.9-1.2 1.3-1.8 1.4-1.8 4.9-7.2 6.7-10.3l1.8-3 2.5-.6c2.5-.6 3.6-1.2 8.1-4.5 1.8-1.3 1.8-1.2.2 1s-8.9 8.7-15.1 13.5c-.8.6-1.5 1.2-1.5 1.4 0 .5 2.2.2 4.7-.7 2.6-.9 4.6-2.1 7.5-4.4.9-.7 1.6-1.2 1.6-1 0 .4-5.3 5.6-6.7 6.5-1.5 1-7.3 3.5-9.9 4.3l-1.5.5.3-.9zm-18.6-2.2c-2.6-3.1-5.5-9-5.3-10.7.1-.6.2-.5 1.2 1.2 1.2 2.1 4 4.9 5.7 5.7 1 .5 2.2.7 2.2.3 0-.1-1.3-1.5-2.9-3.2-4-4.2-4.9-6-5.1-10.3l-.1-3.1 1.4 2.8c1.6 3.2 2.4 4.3 4.7 6.5 3.1 2.9 5.8 4.7 7.2 4.7.4 0-.1-.7-2-2.5-5-4.9-7.7-9.1-8.6-13-.2-1.1-.4-2.2-.3-2.3 0-.1.6.6 1.1 1.6 1.8 3.1 4.7 6 9.7 9.4 2 1.3 4.2 2.3 4.5 1.9.1-.1-.9-1.3-2.3-2.7-4.5-4.8-6.7-7.5-9-11.5-.6-1-1.6-4.6-2-7.1-.2-1.1-.1-1 1 1 1.6 2.9 3.3 5 8.8 10.7 4.8 5 6.3 6.3 6.8 5.8.2-.2-.6-1.3-2.1-3.3-3.4-4.4-7.8-10.4-8.8-12.1-.9-1.6-2.4-6.1-2.8-8.1-.2-1 0-.9 1.3 1.4 3.5 6 8.4 12.1 12.1 15 1.5 1.2 3.3 2 3.6 1.7.1-.1-1.6-2.3-3.8-4.9-4.4-5.4-5.9-7.6-8.1-11.9l-1.5-3v-5.4l1.2 2.3c4.4 8.1 4.6 8.5 8.1 12.5 4.6 5.2 8.7 9 8.7 7.9 0-.1-1.2-1.6-2.6-3.4s-3.7-4.9-5.1-7c-2.3-3.5-2.6-4-3.5-7.2-.8-2.9-2.1-10.1-1.9-10.4.2-.2 1.3.6 1.6 1.1.2.3.5 1.6.7 2.9.7 4 2.3 6.6 7.9 12.7 3.4 3.7 5.4 5.5 6 5.3.2-.1-1.1-2.4-2.9-5.3-1.8-2.8-4.2-7.2-5.4-9.6l-2.2-4.4.1-4.5c.1-5.1-.1-6-1.9-8-1.1-1.2-1-1.3.6-.5s2.7 2.8 3.7 7.3c1.5 6.1 1.6 6.3 6.7 12.7 2.5 3.1 3.9 4.4 4.7 4.4.1 0-1-2.4-2.5-5.2-3.1-6.3-3.3-6.9-3.8-12.9-.5-5.1-.8-6.3-2.7-9.7-1.2-2.1-.7-1.9 1.2.6 2.3 3 4.7 8.3 7.3 16.1.9 2.9 1.7 4.2 2.2 3.9.2-.1 0-1.2-.5-3.1-.5-1.6-1.3-5-1.9-7.5-1.3-5.7-1.5-10-.5-14.5l.6-2.7.2 3.6c.3 5.1 2.1 12.5 3.4 13.6.8.7.8.6 1-5.6.3-9.7 2.2-18.8 4.9-23.7.6-1 1.1-1.8 1.1-1.8s-.2 1.1-.6 2.4c-.7 2.5-.8 4.4-.1 11.1.2 2.2 0 8.7-.4 15.4l-.2 2.6.9-1c1.2-1.4 2.9-4.2 3.2-5.5.2-.6.4-2.1.5-3.4l.2-2.4.3 1.5c.5 2.4.4 6.1-.2 8.1-.7 2.1-2.6 5.8-4.7 9.3-2.4 4-.7 3.6 3.4-.8 1.2-1.3 2.2-2.2 2.2-2.2s-.7 1.8-1.5 3.8c-1.8 4.2-3 6.7-5.4 11-.9 1.6-1.6 3-1.6 3.1.3.3 2-1.4 5-5.1 1.8-2.3 3.4-4.2 3.5-4.1.2.2-1 3.8-1.9 5.5-1.5 3.1-5.2 8.1-9.2 12.6-.7.8-1.2 1.5-1.2 1.7 0 .5 1.3.3 2.3-.4 2.2-1.4 8-6.3 9-7.7l.5-.7v.7c0 1.8-3.1 5.5-7.7 9.1-1.2.9-3.3 2.7-4.6 3.8-1.3 1.2-2.7 2.4-3.1 2.7l-.7.6.6-1.3c.3-.7 1.1-2.5 1.8-3.9 4.7-10 5.4-13 5.7-23 .3-9-.2-9.9-1.9-3.3-2.5 9.9-5.8 17.4-10 23.3-1.9 2.6-9.3 10.6-14.3 15.4-3.6 3.5-9.2 8.1-9.7 8.1-.3-.5-.8-1-1.2-1.5zm175-2c-.2-.3-.6-1.4-.9-2.4l-.6-1.8-1.3.6c-.7.3-1.3.5-1.4.5-.3-.3-.2-3 .3-4 .3-.6.5-1.1.5-1.2 0-.3-1.2-.1-2.2.3l-1 .4v-.9c0-.5.3-1.4.6-1.9.8-1.2.4-1.6-1-1-.9.4-2.8.6-2.8.4l.6-1.2c.3-.6.6-1.6.6-2.2v-1.1l-1.7 1.1c-1.9 1.3-4.3 1.9-3.9 1s.8-3 .6-3.2c-.1-.1-1 .2-2 .6-1.4.5-2.4.8-3.7.8-1 0-1.9-.1-1.9-.1 0-.1.4-1 .9-2 .5-1.1.8-2 .8-2-.1-.1-.9.4-2 1-1 .6-2.2 1.1-2.7 1.1h-.8l.7-.9c1.6-2.1 1.6-2.1 1-1.9-2.6 1-3.6 1.1-5.8.3-3.2-1.1-3.2-1.1-1.4-1.9 1.9-.8 2.3-1.8 1.5-3-.8-1.3-2.1-1.8-4.3-1.7-1.8.1-4.8-.4-6.8-1.2-.7-.3-.7-.3.2-.3.5 0 1.4-.3 1.9-.6 1-.7 3.4-2.8 3.6-3.1 0-.1-.9 0-2.2.2-1.8.3-2.5.3-3.7.1-.8-.2-1.5-.4-1.5-.6s.4-.6.9-1l.9-.8-1.4-.5c-.8-.3-1.7-.8-2-1.1l-.7-.6 1.2-.4c1.5-.6 1.6-.8.6-2.2-.8-1.1-1.5-1.5-4-2.3-1-.3 1.9-1.3 4.2-1.5l2.4-.1-1.4-1.3c-.9-.8-1.5-1.7-1.8-2.5-.4-1.2-.4-1.3.1-1 .3.2 1.4.3 2.4.3 3.3 0 4.7.4 6.1 1.8 1.3 1.4 3.4 2.6 5.8 3.2.9.2 1.7.5 1.7.5.1.1-.5.6-1.3 1.3-1.9 1.6-2.6 3.2-2.8 6.3-.2 3.1.5 4.7 3.5 7.4 3.2 3 6.1 4.5 12.3 6.1 2.7.7 5.4 2 8.2 4 1.9 1.3 2.2 1.7 3 3.4 1.2 2.6 1.8 3.4 3.3 4.4 1.6 1 3.8 1.1 5.5.3 1.7-.9 4.4-1.4 6.9-1.4 3.9 0 5.4-.7 5-2.4l-.2-.8.9.6c.5.3 1.2 1.2 1.5 1.8.7 1.1 1.4 3.4 1.2 3.6-.1.1-.7-.2-1.5-.5-1.6-.7-1.7-.6-1.3.5.2.4.2 1.3.1 1.9l-.4.6-1.2-1.1-1.2-1.1-.2 1.8c-.1 1-.3 1.9-.5 2.1-.3.3-2.2-1.7-3-3.3-1.1-2.1-2.6-2.1-5.9 0-2.1 1.4-4 3.4-4.5 5-.3 1.2-.3 1.3-.6.8zm-7.7-3.3c-1.8-.4-3.8-1.7-5-3.2-.9-1.1-1.6-1.6-2.8-2-1.9-.7-2.6-.7-5-.1-1.8.5-2 .5-3.1-.1l-1.3-.5 1.2-.3c.7-.2 1.7-.8 2.5-1.5 1.9-1.8 3.5-1.7 7.1.5 2 1.2 3.2 1.4 4 .8.2-.2 1.1-.5 1.8-.6 1.3-.2 1.4-.2 1.1.4-.3.6-.4 3.6-.1 3.9.1.1.6-.2 1.2-.7 1.1-1 1.7-1.1 1.4-.4-.1.3-.3 1.3-.4 2.2-.3 1.9-.6 2.1-2.6 1.6zm7.8-5.7c-1.5-.7-2.2-1.5-3.4-3.9-1.8-3.7-6.1-6.7-12-8.3-6.1-1.7-9.1-3.2-12.1-6.1-3.2-3.2-3.9-5.4-2.8-8.9.5-1.7.9-2.2 2.3-3.6l1.7-1.6 2.9.3c4.4.5 4.6.4 2.4-.9-.8-.5-1.7-1.5-2.4-2.5-.6-1-1.3-1.8-1.5-1.9-.4-.2-.4-2.6 0-3.8.1-.5.7-1.4 1.1-2 .7-.9.9-1.3.9-2.6 0-1.6-.6-2.7-1.6-2.7-.8 0-.8-.6 0-1.7 1-1.5 2.5-2.5 4.4-2.8 1.8-.3 2.4-.2 3.8.7 1 .6 1.1.7 2.3.2 1.5-.5 4.4-.6 5.3-.1.3.2 1.2.8 1.9 1.4l1.3 1-1.3.1-1.3.1 1.2.8c1.8 1.2 1.5 1.7-1.2 2.3-1.1.2-1 .6.4 1.2 2.2 1-.1 1.4-2.6.4-.8-.3-2.1-.6-3-.6h-1.6l1.1 1.1c1.4 1.4 1.5 2 .2 2-.8 0-2.8.9-2.8 1.3 0 .1.4.3 1 .6 1.9.9 1.6 1.3-1 1.3-1.3 0-2.3.1-2.3.2 0 .4 1 1.6 1.3 1.6.2 0 .4.1.4.3 0 .5-1.2.3-2.2-.3-1.1-.7-1.2-.4-.4 1.2.7 1.4 1.8 2 3.6 2 1.5 0 1.5.1.7 1.4-.7 1.1-.6 1.1 1 .5 1.2-.5 1.2-.5 2.7.5 2.9 1.8 5.3 2.2 7.2 1.2l1.1-.5v.6c0 .8.7 1.8 1.5 2.2.5.3.8.2 1.5-.3l.9-.6.7.8c.8.9 1.5 1 2.3.2.5-.5.6-.5 1-.2.3.2.8.5 1.2.6l.7.2-.6.5c-.3.3-.6.6-.6.7 0 .3 4.6.2 5.2-.1.5-.3.5-.3.3.3-.2.3-.3.8-.3 1.2s-.4.8-1.4 1.2c-1.2.5-1.9.6-5.1.6-4.7 0-8.6-.7-12.8-2.1-5.2-1.7-6.9-1.5-8.4 1.2-.8 1.4-.9 3.1-.4 4 .4.7 4.8 4.2 8.7 7 3.3 2.3 4 3.2 5.5 6.7 1.4 3.3 2.2 4.6 3.4 5.3 1.2.7 2.8.7 3.5 0 1-1.1 4-1.9 6.9-1.8 2.5.1 2.6 0 3.4-.8s.9-.9 1.3-.4c.6.8.8 1.8.4 2.2-.2.2-1.8.4-3.7.5-3.6.2-5.6.6-7.2 1.4-1.9.5-3.3.6-4.6 0zm.8-1.9c-.5-.2-1-.5-1.1-.7-.5-.7 1.4-5.5 1.9-4.9.4.4.8 3.6.6 4.8-.1 1.3-.2 1.3-1.4.8zm1.8-2.7c-.1-1.5-.3-2.8-.6-3.3l-.4-.8-.8 1.1c-.4.6-1 1.8-1.3 2.8l-.5 1.7-1-2.1c-.5-1.2-1.4-2.9-1.9-3.9s-.8-1.9-.7-2 .4-.8.6-1.5l.5-1.3 1.6 1.6c2.1 2.2 5.2 3 7.6 2.2 1.4-.5 1.4-.4 3.8 1.9 1.4 1.4 1.5 1.6 1.5 2.8v1.3h-1.5c-1.8 0-3.6.5-5.4 1.4l-1.3.7-.2-2.6zm9-1.3c0-1.2.2-2.2.5-2.8l.5-.9.5 1c1 1.8.5 4.3-.8 4.5-.7.1-.7 0-.7-1.8zm-49.4-.5c-.7-.1-2.3-.6-3.5-1.1-3.6-1.4-5.6-1.6-9-.8-1.1.3-1-.2.2-1.4 1.4-1.4 3-1.9 6.8-2.1l3.3-.2-2.4-1.2c-2.7-1.4-5-1.8-9.8-1.8-2.6 0-7.8-.9-9.3-1.6-.5-.2-1.1-.7-1.4-1-.5-.5-.5-.5 1.3-.4 2 .2 4.9-.3 5.4-.9.3-.3-.1-.5-1.6-.9-3-.8-5.8-2-6.8-2.9-.5-.5-1.4-2-2-3.6-1.4-3.3-3.5-6.5-4.9-7.4-.6-.4-2.2-1.1-3.5-1.6-3-1.1-2.7-1.4 1.1-1.4 2.9 0 5.1.8 8.7 3.2 2.2 1.5 2.8 1.7 4.8 1.6 1 0 4.9-.8 4.9-.9 0-.1-1.1-.6-2.5-1-8.9-2.9-12.7-6.2-19.7-17.7-3.5-5.8-6.8-9.6-9.1-10.6-1.8-.8-1.4-1.1 1.9-1.1s7.4 1.2 7.2 2c-.3.9.7 2.5 2.7 4.1 3.9 3.2 6.4 4.3 11.4 5.2 5.7 1 8.7.8 11.9-.6.9-.4 1.3-.4 2-.1.5.2 2.1.3 3.6.3 2.4 0 2.6 0 2.8.6.3 1-.4 1.5-2.5 1.5-1 0-2.3-.1-3-.2-1.5-.3-2.4.5-2.4 2 0 1.2.2 1.3 2.7 2.3 3 1.2 6 1.3 8.4.3 3.4-1.4 3.9-1.3 11.9 3.4l2.5 1.4-.2 1.1-.2 1.2s-.6-.1-1.2-.3-2.4-.5-3.9-.6c-3.1-.2-3.4-.4-4.9-1.8l-1.1-1 .6 1.9.6 1.9-.8-.2c-.4-.1-1.8-.2-3.1-.2-2.1 0-2.5-.1-3.7-.9l-1.4-.9.2.9c.3 1.6 1.3 3.8 1.9 4.4.6.6.6.6-.1.8-.4.1-1 .2-1.4.2s-1.7.5-2.9 1.2l-2.2 1.2 1.3.3c2.5.5 3.4.8 4.3 1.5 1.2 1 1.1 1.4-.2 1.8-.6.2-1.2.4-1.3.5-.4.3 1 1.8 2.3 2.5l1.3.7-1.1.9-1.1.9 1.1.5c.6.3 2.1.5 3.4.6 2 .1 2.2.2 1.9.6-.8 1-2.7 1.5-4.5 1.3-1.5-.2-1.6-.2-1.2.3 1.1 1.4 5.8 2.7 9.3 2.7 2.6 0 3.9.5 4.1 1.6.3 1-.1 1.3-2.8 2.1l-2.3.7 2.9 1.3c2.5 1.1 3.2 1.3 4.8 1.3h1.9l-.5.6c-.5.7-3.1 1.9-4.9 2.3-1.8.8-5.5 1-7 .7zm58.1-3.4c-1.8-1.2-5.8-2.7-7.7-2.8-1.5-.1-2.2 0-4.9.9-2.6.9-3.4 1-4.6.9-1.7-.2-3.6-1-4.3-2-.3-.4-.9-1-1.5-1.4-.7-.5-.9-.9-.9-1.7 0-1.7-.4-1.9-1.1-.4-.6 1.2-.7 1.3-1.8 1.3h-1.2l.2-1c.1-.6.1-1.7 0-2.6l-.2-1.6-1.2 2.2c-.7 1.2-1.3 2.3-1.5 2.4-.4.1-5.9-4.2-6.5-5.1-.6-.9-.6-1.3.3-3.1.9-1.7 2.1-2.5 3.6-2.2l.9.2-.2 1.6c-.1 1.3-.4 1.9-1.4 3.2-1.3 1.7-1.3 1.9.5 1.4 1.5-.4 2.8-1.5 3.8-3.4.5-.8.9-1.5 1-1.5s.8.2 1.7.4c2 .5 2.9 1.3 4.3 4 1.3 2.5 3.1 4.5 4.7 5.2 1.1.5 1.2.5 3.7 0 3.8-.8 7.8-.7 9.8.2 2.2 1 4.5 2.9 5.2 4.3.3.6.6 1.2.5 1.3 0 .1-.6-.2-1.2-.7zm-25.9-1.9l-.7-.5 1-1.9 1-1.9v1.6c0 .9-.2 1.9-.4 2.4-.2.8-.2.8-.9.3zm-1.8-1.6c-.8-.6-.8-.7.6-.9 1-.1 1-.1.8.3-.6 1.2-.6 1.2-1.4.6zm-1.9-1.3l-.6-.5 1-1.7 1-1.7v1.4c0 .8-.2 1.8-.4 2.3-.4.7-.4.7-1 .2zm77.9-2.6c-1.3-2-4.5-5.3-6.8-6.8-2.5-1.7-3.8-1.9-6.9-.9-3.2 1.1-3.5 1.1-5.9-1.2-1.1-1.1-2.4-2.1-2.8-2.4-.5-.3-2.4-.4-5.7-.5-5.3-.2-5.6-.2-8.2-2l-.9-.6h4.8l-.7-.7-.7-.7 1.8.8c1.5.6 2.5.8 5.4 1 2 .1 3.9.4 4.4.5.4.2 1.6 1.1 2.6 2 2.6 2.4 3.3 2.6 7 1.8l3-.6 1.5.7c3.4 1.7 9.4 9.1 8.8 10.8.2 0-.3-.5-.7-1.2zm-82.1-3c.1-.2.5-.8.9-1.3.5-.7.8-1.4.8-2.5.1-.9.2-1.6.3-1.6.6 0 2.4.7 2.4 1 0 .4-1.6 3.1-2.1 3.6-.7.5-2.6 1.2-2.3.8zm30.7-3c-.5-.6-1.1-1.5-1.4-2l-.5-.9-.9.6c-.5.3-1.1 1.1-1.5 1.6-.7 1.2-.9 1.2-1.3.2-.5-1.1-.4-2.1.3-3.2.9-1.4.5-1.6-1.2-.8-1.5.7-3.4.9-3.4.4 0-.1.4-.6 1-1.1.5-.4 1.3-1.3 1.6-1.8.8-1.1 2.6-3.2 2.9-3.2.1 0 .1.4.1.9-.3 2.2 2.9 4.1 5.6 3.4 1.2-.3 2.6-1.8 2.6-2.7 0-.5.2-.7 1.1-.8 1.7-.3 2.7-1.6 2.5-3.4-.1-.9-.3-1.6-.6-1.8-.4-.3-.4-.5-.2-.9.6-1 .4-2-.6-2.7-.5-.4-1.2-.7-1.5-.7-.6 0-.6 0-.1-.6.9-1 3.9-2.3 6.1-2.6 1.2-.2 2.2-.3 2.2-.2.1.1-.8.9-2 2-1.2 1-2 1.9-1.9 1.9s.7 0 1.3-.2c1.2-.3 3.2-.4 4.5-.1l.9.2-.8.5c-1.1.7-2.6 2.7-2 2.8 1.6.5 3.1 1.1 2.9 1.3-.1.1-1 .4-2 .7l-1.7.5 1.6.8c.9.4 2 1.2 2.6 1.7l1 .9h-1.9c-4.2 0-6.1 1-7.5 3.8-.8 1.7-.9 3.4-.3 4.9.3.8.4 1 .1 1-1 0-2.4-.6-3.6-1.6-1.4-1.2-1.6-1.1-2.6 1.1l-.6 1.1-.8-1zm-15.6-6.3c-.7-.7-1.2-.7-2.1.1-1.2 1-2.3-1.6-1.5-3.5.9-2.2.4-3.7-2.3-6.1-1.4-1.3-2-3-1-3 .3 0 .9.5 1.4 1.2 1.8 2.6 2.9 3.1 6.4 3.2 1.8 0 2.9-.2 4.2-.6 4.1-1.5 7.3-1.8 9-.9l1.1.6.8-1c1.5-2 4.1-2.6 5.5-1.2.8.7.8 1-.1 1.9-.7.7-.7.8-.2 1.1.3.2.6.4.7.4.2 0 .9 1.3.9 1.9 0 .2-.3.8-.7 1.3-.6.8-.9.9-2.1.9h-1.6v1.2c0 1.1-.1 1.3-1 1.9-1.6 1.1-3.3.9-4.8-.6-.7-.7-.8-1.6-.2-3.5.2-.7.3-1.3.2-1.3-.3 0-4.4 4.1-5.6 5.5-.9 1.1-1.3 1.4-2 1.4-.5 0-1.1-.2-1.3-.4-.2-.2-.6-.4-1-.4s-.8.2-1 .4c-.5.4-1 .3-1.7-.5zm-8.7-1.2c-1.1-.2-2.3-.7-3.8-1.6l-1.4-.9.8-.7c.9-.7 1.5-.9 1.5-.3 0 .9 1.4 1.8 2.8 1.8 2.6 0 3.9-2.8 2.2-4.7-.4-.5-.9-.9-1.1-.9-.5 0-.5-.3 0-1 .4-.5.5-.5 1.6.6 1.8 1.7 2.4 2.7 2.3 3.8 0 2.4-2.4 4.3-4.9 3.9zm-18.9-2.7c-4.9-.8-7.8-2.3-8.9-4.6-.8-1.6-.7-1.7.6-1.3.7.2 2.5.5 4 .6 2.4.2 3 .4 4 1.1 1.1.8 4.3 4.7 3.7 4.7 0 .1-1.6-.2-3.4-.5zm12-.7c-.1-.7-.2-.8-1.6-.8-.9 0-1.8-.2-2.2-.5-.9-.6-1-.9-.2-.6.8.3 2.3-.4 2.3-1 0-.3-.3-.6-.8-.8-.7-.2-.5-.3 1.2-.5 2.3-.3 2.6-.7 1.5-1.9-1-1-.8-1.3.8-1.3 1 0 1.2-.1 1.3-.7.1-.4-.2-1-.5-1.5l-.6-.9 1 .1c1.6.2 4.1 1.3 4.6 2 1.3 1.6 1 3-1.3 5.3-1.6 1.6-4.6 3.9-5.1 3.9-.2-.1-.4-.4-.4-.8zm5.6 0c-.9-.9-.9-1.3.1-2.3 1-.9 1.6-1 2.4-.2s.7 1.8-.2 2.6c-1 .8-1.4.8-2.3-.1zm7.1-4.6c-1.2-.6-3-3-2.5-3.3.7-.4 1.3-.2 1.3.4 0 .9 1.5 2.3 2.6 2.3 1.9 0 3.2-1.6 2.6-3.2-.3-.8-.3-.9.3-.5 1.5 1 2.1 3.6 1 4.4-.8.5-4 .5-5.3-.1zm.1-2.5c-.2-.4-.4-.8-.4-1 0-.4 1.5-1.2 2.3-1.2s1.4 1.2.9 2.2c-.5.9-2.1 1-2.8 0zm-27.8-2.5c-6.2-3.7-7.8-4.2-10.3-3.2-3.1 1.2-3.7 1.3-5.7 1-2.3-.4-5.7-1.8-5.7-2.4s1.1-1.7 1.6-1.5c1.8.7 2.7.8 4.2.5.9-.2 1.7-.5 1.9-.7.6-.8.6-1.6.1-2.2s-.8-.7-3.2-.7c-1.8 0-2.9-.1-3.3-.4-.6-.4-.9-.3-3 .4-2.2.8-2.7.9-5.8.8-6-.1-10.4-1.3-14.2-3.9-3.9-2.7-5.5-4.9-4-5.7 1.3-.7 2.2-.3 6.3 2.3 1.2.7 3.2 1.8 4.4 2.3 4.6 1.9 11.4 1.6 11.4-.5 0-.2-1.2-1-2.8-1.7-6.9-3.2-6.9-3.2-7.8-4.5-1-1.4-1.1-1.5-.2-2.1.6-.4.8-.4 2.2.2.8.3 1.9.9 2.4 1.3 1.3 1 5.9 3.8 8.2 4.9 1.3.7 3.2 1.3 5.2 1.7 4.2.9 7.2 2.1 11.2 4.5 3.8 2.3 7.6 4.2 10.2 5.2 1 .4 1.9.9 2.1 1.2.5.9.1 2.4-.9 3.5-.5.5-.9 1.1-.9 1.3-.1.4-.8.1-3.6-1.6zm22.3.5c-.3-.4-.3-.5.2-.6.9-.2 1.1-1.1.3-1.7-.7-.5-.7-.5-.1-.5 1.3 0 2-2 1-2.8-.5-.4-.5-.4.1-.4.4 0 1.2-.2 1.9-.3 1.1-.3 1.4-.3 2.7.4 3.1 1.5 2.8 3.9-.7 5.5-1.7.8-4.9 1-5.4.4zm-22.7-7.5c-1.7-.8-4.5-2.4-6.2-3.4-3.9-2.3-7.3-3.7-11.3-4.5-3.6-.7-6.6-2.1-11.7-5.5-4.5-2.9-5.9-3.4-7.3-2.4-.9.6-.8 1.8.2 3.3.7 1 1.4 1.5 3.7 2.5 6 2.8 6.7 3.1 6.7 3.3 0 .6-2.5.9-5.5.6-3.6-.4-5.5-1.1-9.9-3.8-2.8-1.7-3-2-5.1-4.8-1.2-1.6-2.4-3.5-2.7-4-.7-1.4-1.6-5.8-1.6-8.2 0-2.2-.3-3.2-1.4-4.4l-.8-.8.7.2c1.6.5 2.6 1.4 4.1 3.7 3.4 5.3 3.8 5.8 5.1 6.6.7.5 1.9.9 2.6 1l1.2.2-1.5-1.5c-.8-.8-1.6-1.7-1.6-2-.2-.8-.7-4.2-.6-4.3.1-.1.7.4 1.4 1 3.2 2.7 6.1 4.3 9.8 5.4l2.6.8 4.4-.5c4.9-.6 6.2-.4 9.2 1.1 2.9 1.5 6 5.1 8.7 10.1 1.7 3.2 1.8 3.2 3.2.2 1.3-2.9 1.4-4.2.1-6.5-1-1.8-1-2.1-.9-3.5.2-2.2.4-2.2 1.5-.8.8 1 1.6 1.6 3.3 2.4 1.3.6 2.7 1.5 3.2 2 1 1 .9.2.7 8.3 0 1.4.2 2.9.5 4.3l.6 2.2-1 1.2c-.5.7-1 1.4-1 1.6.3.7 0 .6-3.4-1.1zm6-3.3c-.5-1.9-.9-3.8-.8-3.9s.9.8 2 2l1.9 2.1-1.4.5-1.4.5-.3-1.2zm-12.4-8.1c-1.7-3.1-3.4-5.4-5.8-7.7-1.8-1.8-2-2-1.9-3 .1-.9.2-1.1.9-1.2 1.3-.1 3.8 1.3 6.2 3.6 2.8 2.6 3.9 4.5 3.7 6.4-.1 1.3-1.3 4.4-1.6 4.3-.1-.1-.8-1.1-1.5-2.4z"/></g></svg>