<svg xmlns="http://www.w3.org/2000/svg" viewBox="0 0 256 256" enable-background="new 0 0 256 256"><style type="text/css">.st0{fill:#bf000c;}</style><path id="path3067" class="st0" d="M121.7 211.6v-38.9h-94.6l3.8 6.6c14.1 24.3 31 39.7 54.7 49.8 18.3 7.8 16.4 9.4 16.9-15 .2-11.7.4-21.4.3-21.6-.1-.2-8.8-.2-19.4 0l-19.3.4 8.6 6.6c4.7 3.6 8.9 6.6 9.3 6.6.4 0 .9-1.4 1.1-3.1.4-2.6 1.4-3.2 6.3-3.5l5.9-.4v26.8l-3.8-.9c-7.2-1.7-24.3-12.5-33.7-21.3-8.5-7.9-18-19.8-18-22.8 0-.6 16.9-1.2 37.5-1.2h37.5v69.8l-8.2-.9c-24.9-2.6-55.8-20.8-73.8-43.5-8.8-11.1-22.6-37.4-21.8-41.6.5-2.4 5.9-2.5 117-2.9 66.4-.2 117 .2 117.7.9 1.6 1.6-5.9 20.4-12.2 30.6-11.6 18.9-29.9 35.8-49.7 45.6-12.7 6.3-29.4 11.4-37.4 11.4h-5.3l.4-34.3.4-34.3 37.1-.5c42.6-.4 40.9-1.1 31.2 11.8-7.7 10.3-21.1 21.2-34.4 28.1-15.5 8.1-15.4 8.1-14.9-7.3l.4-12.8 5.9-.4c5.8-.4 5.9-.3 5.9 3.9v4.3l5.9-4.3c3.2-2.4 7.8-5.8 10.1-7.7l4.2-3.4h-39.6v43l3.8-.9c7.7-1.8 23.2-9.1 32.4-15.2 10.9-7.3 26.4-23.4 32.8-34.1 8.1-13.7 12.6-12.3-41.1-12.3h-47.3v77.8h-12.5c-.1 0-.1-38.9-.1-38.9zm-114.3-61.4c-.5-1.7-.8-4.5-.9-6.2v-3.1h54.2v-7h-36.3l.4-5.9.4-5.9 103-.4 103-.4v12.6h-34.5v7h26.3c14.5 0 26.5.5 26.9 1 .3.6.3 3.4-.1 6.2l-.7 5.2h-240.9l-.8-3.1zm176.8-12.8v-3.5h-111.1v7h111v-3.5zm-178.3-16.3c.6-7.1 1.5-14.2 2.2-16l1.2-3.1h119.3c90.4 0 119.6.4 120.3 1.6.6.9 1.3 8.1 1.6 16l.6 14.3h-12.8v-19.4h-219.3v4.5c0 2.5-.4 6.9-.9 9.7-.8 5.1-1 5.2-7.1 5.2h-6.1l1-12.8zm20.2-25.7l-15.8-.4.9-4.3c1.1-5.3 10.3-23.9 16-32.2 20.3-29.5 55.7-50.5 88.3-52.5l8.3-.5.4 35 .4 35h-84.9l3.2-5.7c1.8-3.1 8.4-10.7 14.8-16.7 9.2-8.7 14.5-12.4 25.7-17.9 7.8-3.8 15.8-6.9 17.9-6.9h3.8v13.9c0 13.5-.1 13.9-3.4 14.7-6.4 1.6-9.1-.4-9.1-6.6 0-6.7-.4-6.6-13.9 2.4-15.9 10.6-16.1 10.4 10.2 10.4h23.1v-44.1l-8.3 1.9c-26.9 6.3-52 24.2-67.8 48.3-3.9 6-7.1 11.5-7.1 12.1 0 .7 44 1.2 99.9 1.2h99.9l-2.9-5.9c-4.4-8.9-17-24.8-24.6-31.2-13.8-11.6-31.4-20.5-48.7-24.5l-8.5-2v44.2h47.8l-5.6-4.8c-4.9-4.2-19.9-13.2-22-13.2-.4 0-1 2.6-1.2 5.9-.5 6.3-2.4 7.6-8.9 6-3.3-.8-3.4-1.2-3.4-14.9v-14l5.5.7c7.9 1.1 27.1 10.8 36.7 18.6 9.4 7.7 23 23.1 23 26.1 0 1.8-5.8 2.1-42.3 2.1h-42.3v-69.4h7.5c11.4 0 32.6 6 46.3 13.1 23.8 12.3 41.6 30.5 53 54.2 3.7 7.6 7.1 15.5 7.5 17.5l.8 3.6-61.4.9c-58.5.9-125.1.8-158.8-.1z"/></svg>