<svg xmlns="http://www.w3.org/2000/svg" viewBox="0 0 500 500" enable-background="new 0 0 500 500"><path d="M100.8 398.5l-60.8-61.5v-174.2l61.4-61.4 61.3-61.4h173.4l61.9 61.3 61.9 61.3v174.8l-61.4 61.4-61.3 61.2h-175.6l-60.8-61.5zm286.8-11.5l56.1-56.8v-160.4l-56.6-57.2-56.6-57.2h-161l-57.1 57.1-57.1 57.1v160.8l56.7 56.7 56.7 56.7h162.8l56.1-56.8zm-270.4-4.2l-55-55v-155.8l55.5-54.9 55.5-54.9h153.6l55.5 54.9 55.5 54.9v155.8l-55 55-55 55h-155.6l-55-55zm261.3-4.3l53.3-53.2v-150.6l-53.2-53.3-53.2-53.3h-151.4l-52.9 52.9-52.8 52.8v152.2l52.8 52.8 52.8 52.8h151.4l53.2-53.1zm-144.8 37.3c-.9-.2-2.7-.7-3.9-1.2-2.2-.8-2.2-.9-1.1-4.4 3.6-11.9 8.3-38.9 7.9-45.5l-.3-5.1-4.1 6.2c-6.1 9.2-6.4 10.4-7.1 25.1-.6 12.9-.7 13.2-3 15.5-2.1 2.1-3 2.4-7.9 2.4-4.3 0-6.1-.4-8.4-2-1.6-1.1-3-2.6-3.2-3.3-.1-.7 2-6.1 4.8-11.9 8.1-16.8 8.8-18.8 9.3-25 .4-4.7.2-5.7-.7-5.3-.8.3-2.3-1.5-4.4-5.3-5.1-9.1-12.2-20.6-14-22.6-.9-1-4.2-3.3-7.3-5.1-3.4-2-7.5-5.4-10.3-8.6-2.5-2.9-5.6-6.4-6.9-7.8-1.3-1.4-2.4-3.5-2.4-4.6 0-2.9-1.2-3.1-2.8-.4-1.7 2.9-9.5 6.9-13.3 6.9-1.6 0-2.9.5-3.2 1.2s-2.5 1.9-4.9 2.7c-2.4.8-7.1 2.7-10.4 4.3-11.1 5.3-22.3 6.9-28.2 4.1-3-1.4-3.6-2.3-4.7-7.2-.5-2.1-.3-3.9.6-6 2.2-5.1 3.4-7.9 6.2-14.2 1.5-3.3 2.7-6.6 2.7-7.3s.4-1.7.9-2.1c1.7-1.7 2-9.2.5-12.1-.8-1.5-1.4-3.7-1.4-4.9 0-3.4-1.5-5.5-3.9-5.5-2 0-2.1-.1-.8-1.4 2.2-2.2 3.2-5.4 2.1-6.8-.7-.8-.7-1.6.1-3 .8-1.5.7-2.7-.5-5.8-1.5-3.9-5.8-10.8-7.3-11.8-1.5-.9-9.6-15.3-10.7-19.2-2.4-7.9-.7-17.5 5-28.7 2.3-4.5 12.5-15.7 15.9-17.5 1.8-1 1.6-.3-2 6.5-8.1 15.2-10 22.2-8.2 30.5 1.8 8.6 7.7 16.7 16.4 22.6l3.1 2.1 6-2.6c3.8-1.7 7.4-2.6 9.9-2.6 3 0 4.2-.4 5.1-1.8 1.2-1.8 1.3-1.8 5.8 1.3 2.5 1.7 5.6 3.1 6.8 3.1 4.3 0 15.7-7.4 27.3-17.8l4.7-4.2-1.9-7.6c-1-4.2-2.3-9.8-2.7-12.5-.5-2.7-1.3-5.7-1.8-6.6-.5-1-.6-1.7-.1-1.7 1.5 0 6 6 9.6 12.8 3.4 6.5 5.9 8.8 6 5.4 0-1 1.6-2.2 4.9-3.6 2.7-1.1 9.2-4.9 14.4-8.3 15.3-10 24.2-12.3 40.3-10.1 5.1.7 11.7 1.8 14.7 2.6 17.5 4 23.5 4.9 32.5 4.4 5.3-.3 12.8-1.4 18.4-2.7 16-3.9 23.5-4.9 27.4-4 8.6 2.2 18.9 8.3 26.1 15.4 7.7 7.7 12.7 15.8 16.9 27.4 5 14 5.8 19.1 5.7 38.9 0 16.1-.1 17.3-1.9 20.5-4 7.2-1.9 13.8 7.1 22.7 4.5 4.5 4.8 4.9 4.2 8-.4 2.4-.2 3.7.9 4.8 1.3 1.5 1.3 1.8.1 4.2-1.2 2.3-3.1 9.7-3.3 12.7-.1 1.9-1.5 1.1-1.5-.8 0-1.4-.3-1.6-.9-.9-.7.7-.6 2.2.4 5.6 1.7 6 1.7 6-.6 4.5-1.7-1.1-2.1-1.1-3.6 0-.9.7-2.3 2.7-3.2 4.4l-1.5 3.2-.1-3.4c-.1-1.9-.4-4.4-.7-5.6l-.6-2.1-.6 2.1c-.4 1.6-.8 1.9-1.3 1-.6-.9-1.3-.1-2.7 2.7-1.8 3.7-3.4 4.5-3.4 1.8 0-1.5-1.7-1.7-1.7-.2-.1 3-1.6-2.2-2.1-7.4-.9-8.5-1.1-8.7-4.1-5.9l-2.5 2.4.6-8.6c.3-4.7.9-10.1 1.3-12s.7-5 .7-6.8v-3.4l-1.2 3.2c-1.5 4.1-5.3 20.4-6.8 29.5-.7 3.9-1.6 8.5-2 10.3-.5 1.8-1.3 6.1-1.8 9.7-.5 3.5-1.5 8.9-2.2 12s-1.6 7.3-2 9.4-1.1 5.4-1.5 7.2c-.8 3.9-2.1 4.5-10.2 4.7-4.5.1-5.6-.2-7.5-2.1-1.4-1.3-2.1-2.6-1.7-3.2.3-.6 2.4-3.8 4.6-7.1 5.2-7.9 9.5-18.4 10-24.8.3-3.7-.1-7-1.4-12-2.1-7.9-3-9.1-4.6-6.9-1.1 1.6-1.2 1.5-1.8-.3-.8-2.6-1.8-2.3-3 .7-1.5 3.6-2.2 3.2-1.9-1.1.3-3.5.2-3.6-1.1-1.9-3 3.5-12.3 24.9-17.9 40.8-1 2.8-2.8 5.3-5.7 7.9-3.9 3.5-4.7 3.9-8.7 3.9-4.3 0-8.2-1.7-8.2-3.5 0-.5 1.7-3.4 3.7-6.6 2.1-3.2 4.4-7.1 5.2-8.7.8-1.6 2.9-4.9 4.5-7.2 3.9-5.5 10.5-18.1 11.4-21.8.8-3.5-.8-11.2-2.4-11.2-.6 0-.9.4-.6.8.9 1.5-5 6.7-8.7 7.7-2 .5-4.2 1.8-4.9 2.8-1.3 1.9-1.3 1.9-1.3-.6v-2.4l-1.7 2.2c-.9 1.2-1.7 2.7-1.7 3.3 0 .6-.3 1.6-.7 2.3-.4.7-.8-.3-.8-2.5-.2-3.9-1-5.8-1-2.3 0 1.7-.7 2.5-3.4 3.7-3.3 1.5-3.5 1.5-5.7 0-2.3-1.5-2.3-1.5-5.2 1.6-1.6 1.7-3 3.1-3.2 3.1s-.5-.9-.6-1.9c-.2-1.6-1-.8-4.3 4.3-2.2 3.4-4.1 6.5-4.1 6.9s-1.1 2.4-2.5 4.5-3 5.2-3.6 6.9c-.8 2.2-1.8 3.3-3.3 3.7-3 .7-5.1 3.5-6.3 8l-1 3.8-1.5-1.9-1.5-1.9-.7 3.3c-.6 3.1-.7 3.2-1.3 1.2l-.6-2.1-.1 2.1c-.1 2.1-1.8 11.6-4 21.8-2.2 9.7-7.8 14.9-14.7 13.5zm-82.1-138c.3-.5-.4-.9-1.6-.9-1.2 0-2.4.4-2.7.9s.4.9 1.6.9c1.2 0 2.4-.4 2.7-.9zm-.4-8.3c1-.3.8-.6-.7-1.2-1.3-.5-2.5-.4-3.6.3-3.5 2.2-.9 2.7 4.3.9zm31.3-20.8c6-2.9 7-3.9 10.2-10.1 4.4-8.5 3.7-29.8-1.2-39.3-.9-1.8-2.3-4.5-3.1-6.1s-1.5-2.7-1.8-2.5c-.2.2.6 4.9 1.8 10.4 3 13.7 3 26.4.1 32.6-2.7 5.8-4 6.7-13.7 10.3-4.6 1.7-10.4 3.9-12.8 4.9l-4.4 1.9 3.4.6c6.7 1.1 15.9 0 21.5-2.7zm-70.6-17.2c-3.5-3.6-7-8.4-9.3-12.6-3.3-6.3-3.6-7.2-3.6-13.5 0-3.7.4-8.1.8-9.7 1.4-5 .2-4-2.6 2-2.8 5.9-4.2 15.1-2.9 18.2.4.9.7 2.2.8 3s.8 2.2 1.6 3.1c.8.9 1.4 1.9 1.4 2.4 0 .9 3.4 6.1 9.2 14.1l4.1 5.7 3.1-3.5 3.1-3.5-5.7-5.7z"/></svg>