<?xml version="1.0" encoding="utf-8"?>
<!-- Generator: Adobe Illustrator 18.1.1, SVG Export Plug-In . SVG Version: 6.00 Build 0)  -->
<!DOCTYPE svg PUBLIC "-//W3C//DTD SVG 1.1//EN" "http://www.w3.org/Graphics/SVG/1.1/DTD/svg11.dtd">
<svg version="1.1" id="Layer_1" xmlns="http://www.w3.org/2000/svg" xmlns:xlink="http://www.w3.org/1999/xlink" x="0px" y="0px"
	 viewBox="0 0 500 500" style="enable-background:new 0 0 500 500;" xml:space="preserve">
<style type="text/css">
	.st0{fill:#FFFFFF;}
</style>
<g>
	<path class="st0" d="M100.8,398.5L40,337V162.8l61.4-61.4L162.7,40h173.4l61.9,61.3l61.9,61.3v174.8l-61.4,61.4L337.2,460H161.6
		L100.8,398.5L100.8,398.5z M387.6,387l56.1-56.8V169.8l-56.6-57.2l-56.6-57.2h-161l-57.1,57.1l-57.1,57.1v160.8l56.7,56.7
		l56.7,56.7h162.8L387.6,387L387.6,387z M117.2,382.8l-55-55V172l55.5-54.9l55.5-54.9h153.6l55.5,54.9l55.5,54.9v155.8l-55,55
		l-55,55H172.2L117.2,382.8z M378.5,378.5l53.3-53.2V174.7l-53.2-53.3l-53.2-53.3H174L121.1,121l-52.8,52.8V326l52.8,52.8l52.8,52.8
		h151.4L378.5,378.5L378.5,378.5z"/>
	<path class="st0" d="M353.8,117.7c-1.5,0.1-2.4,3.5-2.8,4.7c-1-0.3,0-2-0.3-2.8c-0.6-1.5-1.6-0.9-2.6-0.1c-1.1,0.9-3.3,2.3-3.9,3.5
		c-0.4,0.8-0.2,1.1-0.8,1.8c-0.6,0.6-1.1,1.2-1.5,2c-1.4,3.3,0.7,6.7,3.1,8.8c2.4,2.2,4.6,3.1,7.9,3.3c-0.8,1.1-0.8,1.8-0.3,2.3
		c-0.9,0.4-1.8,1-2.7,1.7c-2.1,1.6-3.9,3.9-6.6,4.3c-6.7,1.2-12.5,0.7-18.6,4.1c-5.2,2.9-10,7.2-14.3,11.2
		c-1.8,1.6-11.9,11.6-10.8,13c-10,10.9-17.1,23.7-27,34.7c-1.9,2.1-3.3,4-5.6,5.2c-1.7,0.9-3.2,1.8-4.8,2.9
		c-6,4.3-12.5,8.9-19.2,12.2c-0.4-1.8,0.4-4-1.1-5.5l-0.3,0.4c-0.3-0.5-0.7-1-0.9-1.4c0.1,0.4,0.1,0.9,0.2,1.4c-0.9-1.8-2-3.2-3.7-4
		c0.3,0.6,0.6,1.2,1,1.8c-1.4-1.5-1.6-3.7-3.3-5l0.2,1.3c-1.4-1.1-2.3-2.3-3.8-3.4l0.8,0.9c-0.9-0.6-1.7-1.4-2.7-1.6
		c0.7,0.5,1.1,0.9,1.6,1.5c-1.7-0.6-2.9-2.3-4.3-3.3c0.1,0.3,0.2,0.7,0.3,1.1c-0.6-0.8-1.2-1.5-2-2c0.3,0.5,0.5,1,0.9,1.5
		c-0.5-0.6-1.5-1.4-2.4-1.6c0.5,0.5,0.9,1.1,1.1,1.9c-0.8-1-2.8-2.6-1.9-0.3c-0.7-0.8-1.5-1-1.8-0.2c-1-0.8-2.2-1-1.3,0.3
		c-0.5-0.3-1-0.2-1.5-0.4c0.3,0.5,0.4,0.9,0.9,1.3c-0.9-0.1-2.4-0.7-3.1-0.2c0.7,0.2,1.3,0.5,2,0.8c-0.7,0.1-1.4,0.1-2.2,0
		c0.4,0.3,0.5,0.8,1.1,1.1c-0.9-0.2-1.9-0.2-2.5,0.4c0.1,0.1,0.4,0.1,0.6,0.2c-0.4,0.1-0.8,0.5-1.1,0.6l1.4,0.1
		c-3.5,1.4-5-1.7-7.6-3.6c-3.5-2.6-7.6-4.2-11.1-6.7c-4.1-3-10-3.4-14.8-4.1c-1.9-0.3-13.5-3.4-8.9,1.7c-3.8-1.6-3.9-4.3-8.7-3.6
		c-4.9,0.7-9.6,1.7-14.5,2.5c-3.6,0.6-7.7,1.3-10.5,3.7c-1.6,1.3-4.9,2.9-5.7,4.7c-1.1,2.4,0,3.3-2.5,5.1c-1.6,1.1-3.2,2.2-4.9,3.1
		c-1,0.5-4,1.1-4.5,1.9c-1.1,1.5,0.4,3.4-0.9,4.8c-1.5,1.5-2.6,1.2-3.7,3.3c-2.3,4.4,0.2,4.5,3.9,3.8c1.6-0.3,3.6-1.4,5.2-1.2
		c1.3,0.2,1.2,1.1,2.4,1.4c1.3,0.4,2.9-0.6,4.3-0.5c4.5,0.3-1.7,16-2.5,18.8c-3.1-0.7-3.9,16-3.9,18.6c0.1,8.3-0.8,16.6,0.3,24.9
		c0.3,2,0.9,3.1,1.5,4.9c0.8,2.4,0.3,5.3,1.4,7.7c1.3,2.8,1.7,5.7,2.6,8.8c1.1,4.1,3.3,8.4,5,12.4c3.1,7.7,9.3,16.9,16.8,21
		c0.5,0.3,2.3,1.2,2.7,0.7c0.5-0.6-3.6-2.7-4-3c-3.6-2.7-6.2-6.2-8.5-9.9c-5-7.9-8.2-16-9.7-25.2c-0.7-4.3-0.8-8.6-0.9-13
		c0-4.7,1.6-10.8,0.3-15.2c-0.7-2.3,0.3-3.8,0.7-6.2c0.4-2.5,0.5-5.3,0.7-7.9c0.4-3.9,1.7-7.5,2.8-11.2c0.2,0,1,0.1,1.2,0.2
		c0.2,9.8,1.5,20.1,3.6,29.8c1.8,8.3,4.8,17.8,8.7,25.4c4,7.9,10.1,14.9,15.9,21.6c3.4,4,1.5-2.9,0.8-4.5c-1.6-3.7-3.5-7.3-5.3-10.9
		c-1.7-3.6-3.3-7.2-4.4-11.1c-0.6-2.3-1.3-4.5-2.1-6.7c-0.7-1.8,0-3.9-0.4-5.7c-1.6-7.4-1.5-14.7-2.4-22.2c0.3,2.1,1.4,3.2,3.5,3.7
		c2.4,0.5,4.2-1,5.7,1.1l4.2,6c2.3,3.4,5.2,5.6,8.6,7.8c3.1,1.9,6.3,2.3,9.5,3.7c3.1,1.4,5.8,3.8,8.7,4.9c1.4,0.5,6.4,4.4,7.7,3.8
		c1.2-0.6-3.8-4.1-4.6-5c-2.2-2.5-2.9-5.1-2.8-8.4c0-2.5,0.6-5,2.1-7.1c2.2,3.3,6.3,6.6,10.1,7.8c1.3,0.4,4.8,1.3,4.3-1.1
		c2.1,2.2,5.9,10.2,4.2,2.5c-0.6-2.6,1.1-5.1,2-7.6c4.1,3.8,7.4,10.6,12.3,13.2c-0.4-1.5-1.4-3-2.1-4.4c1.2,1.5,3.3,1.7,4.8,2.3
		c1.6,0.6,2.8,1,4,1.8c1,0.8,1.8,1.7,3,2.3c-1.5,3.1,2.8,3.7,3.5,1.1c1.1,0.7,2,0.8,2.6,1.9c1.1,1.9,0.6,3.2,2.4,5
		c0.5,0.5,3.3,3.3,4.3,2.8c0.5-0.3,0.2-2.8,0.3-3.6c2.7,1,4.4,1.9,7.1,1.9c-0.3,1.5,0.7,1.3,1.1,1.8c-0.5-0.5,1,0.3,1,0.3
		c0.3,0.2,0.6,0.8,0.9,1.1c1.8,1.2,3.8,2.4,5.6,3.4c2.7,1.5,5,3.2,7.6,4.7c1.8,1,4,1.2,5,3c0.9,1.8,0.6,5,0.8,7
		c0.3,3.4,1.8,9.7,0.1,12.9c-0.9,1.6-5.1,1.3-5.3,3.6c-0.3,2.6,3.5,2,4.8,3.3c1.8,1.9-0.9,5.6-2.4,7.6c-2.3,3-5.1,10.4,1.7,9.9
		c2-0.2,1.6-0.6,3.2,0.6c1.2,0.9,2.2,2.5,3.3,3.6c1.4,1.4,2.9,1.3,4.3,2c0.5,0.3,1.4,1.1,1.8,1.4s1.5,0.2,1.6,0.7l0.1,1.2
		c0.4,0.4,0.2,1.7,1.3,1.1c0.5-0.2,0.6-2.3,0.6-2.7c0-1.7,0.5-2.9-0.7-4.4s-3.1-1.4-4.4-2.6c6.9,2.2,14.7-0.5,21.7,0.7
		c1.7,0.3,3.5,0.1,5,0.4c1,0.2,4.4,2.3,4.7,1.6c1.4-2.7-7.1-5.9-8.3-6.1c-3.7-0.6-7.7-0.5-11.4-0.4c-3.1,0-5.4-1-8.5-1.6
		c2-1.7,4-2.9,5.9-4.7c0.9-0.9,1.8-2.5-0.3-2c-4,1-7.3,3.4-11.5,4.3c0.4-5.5,0.6-11.1,0.8-16.6c0.1-3.2,0.6-6.3,0.9-9.5
		c0.1-1.4,0.1-3.2,0.7-4.5c0.7-1.6-0.1-1.6,1.3-1.1c4.2,1.4-0.1,7.3,1.7,9.4c1.2,1.3,4.4-0.9,5.5-1.7c-0.4,2.1-0.2,4,1.3,5.2
		c0.6,0.5,1.4-0.1,2,0.5c0.1,0.1,0.4,2.2,0.5,2.6c1.2,2.4-0.4,2.9-0.5,5.4c-0.1,2.2,1,4,1.7,6.1c0.3,1-0.8,3.4,0,3.9
		c1.2,0.6,3.3-3,3.5-3.8c0.6-2.2-0.3-4.9,0-7.3c0.6-3.8,0.9-5.3-1-8.7c1.9,2,4.3,4,5,6.8c0.3,1.4,0.1,2.8,0.7,4.1
		c0.5,1.3,1.5,2.1,1.8,3.4c0.3,1.4-1,4.4,1.1,2.6c2-1.7,1.4-6.6,1.2-8.8c-0.4-5.5-2.6-10.3-6.3-14.1c-5.5-5.5-11.2-10.9-17.6-15.3
		c2.2-3.1,3.2-6.9,5.3-10.1c2.1-3.3,4.6-6.3,7.5-8.8c2.3-2,4.7-2.8,6.4-5.4c1.8-2.7,4.1-3.8,7.1-5.5c6.7-3.8,12.4-9.3,17.8-14.7
		c2.6-2.6,4.9-5,6.4-8.3c1.1-2.4,2-4.7,3.2-7.1c3.7-7,6.6-14.4,9.9-21.5c2.7-5.7,4.5-11.8,4.6-18.1c0.2-7.5-2.6-14.1-3.8-21.5
		c-0.4-2.8,0.8-5.1,1.5-7.8c1-4.1,0.9-8.2,1.2-12.3h0.1c3.2,0.8,8.5,1.4,10.9-1.2c1.6-1.7,3.4-3,4.7-5.1c1.2-1.9,1.6-4,2-6.2
		c0.3-1.5,0.5-4.1-0.5-5.4c-0.4-0.6-1.1-0.4-1.6-0.8s-0.7-1.3-1.1-1.9c-0.1-0.2-0.3-0.4-0.4-0.5c0.2-0.6,0.1-1.4,0.9-1.5
		c1.6-0.2,3.2-0.3,4.7-0.2c1.2,0.1,2.8,1,3.6,1.1c0.6,0.1,0.2,1.1,1,0.2c0.4-0.4,0.4-1.4,0.3-2c-0.4-1.8-1.5-3.4-2.9-4.7
		c-0.7-0.6-1.4-1.2-2.3-1.6c-0.5-0.3-1.6-0.4-1.9-0.9c-0.2-0.2-0.1-0.4-0.1-0.5c0.5-0.5,1.7,0,2.4-0.8c1-1,1-3.1,1.1-4.4
		c-0.1-2-0.6-4.8-3.2-4.4c0.2-2.2-0.1-4.1-1.1-6.1c-0.4-0.7-0.8-0.4-1.3-0.8c-0.8-0.7-0.7-2.1-0.8-3.3c0-0.5,0-1.2-0.6-1.3
		c-0.4,0-1,0.2-1,0.6c-0.1,1.2-0.3,2.3-0.6,3.5c-0.1,0.6-0.3,2-1.1,1c-0.5-0.6,0.1-1.4,0.2-2.1c0.3-1.1,0.4-2.4,0.2-3.5
		c-0.4-1.9-1-4-2.5-5.4c-0.4-0.4-1.1-0.9-1.8-0.8c-0.8,0.1-0.6,0.9-0.9,1.4c-1.1,1.4-1.7,3.3-2,5c-0.3-2.2-0.8-4.5-0.7-6.8
		c0.1-1.1,1.1-5.3-1.5-4.8c-1.6,0.3-2.7,4.2-3.2,5.5c-0.5,1.4-1.2,2.5-2,3.7c-0.4-1.7-0.8-3.3-1.1-5c-0.2-1.2,0.1-2.9-0.8-3.8
		C354.5,117.8,354.1,117.7,353.8,117.7L353.8,117.7z M359.3,149.9h0.5c3.3,0.6,2.4,5.5-0.9,4.7C356.4,154,356.9,150,359.3,149.9z
		 M360,150.6c-1,0-1.8,1.6-1.1,2.5c0.2,0.3,0.5,0.5,0.7,0.5c1.1,0.2,2.1-1.9,1.1-2.7C360.5,150.7,360.2,150.6,360,150.6z"/>
</g>
</svg>
